<mxfile host="Electron" agent="Mozilla/5.0 (Macintosh; Intel Mac OS X 10_15_7) AppleWebKit/537.36 (KHTML, like Gecko) draw.io/24.7.5 Chrome/126.0.6478.183 Electron/31.3.0 Safari/537.36" version="24.7.5">
  <diagram name="第 1 页" id="ARKMaDYIPXvLcfQ3rOAR">
    <mxGraphModel dx="1026" dy="652" grid="1" gridSize="10" guides="1" tooltips="1" connect="1" arrows="1" fold="1" page="1" pageScale="1" pageWidth="827" pageHeight="1169" math="0" shadow="0">
      <root>
        <mxCell id="0" />
        <mxCell id="1" parent="0" />
        <mxCell id="QRlkg21-nDRliEG5R8-5-21" value="" style="rounded=1;whiteSpace=wrap;html=1;fillColor=none;dashed=1;strokeWidth=2;" parent="1" vertex="1">
          <mxGeometry x="220" y="110" width="820" height="280" as="geometry" />
        </mxCell>
        <mxCell id="QRlkg21-nDRliEG5R8-5-20" value="" style="rounded=1;whiteSpace=wrap;html=1;fillColor=none;dashed=1;strokeWidth=2;strokeColor=#FF5517;" parent="1" vertex="1">
          <mxGeometry x="820" y="190" width="180" height="170" as="geometry" />
        </mxCell>
        <mxCell id="QRlkg21-nDRliEG5R8-5-2" value="" style="edgeStyle=orthogonalEdgeStyle;rounded=0;orthogonalLoop=1;jettySize=auto;html=1;entryX=0;entryY=0.5;entryDx=0;entryDy=0;" parent="1" source="QRlkg21-nDRliEG5R8-5-3" target="QRlkg21-nDRliEG5R8-5-7" edge="1">
          <mxGeometry relative="1" as="geometry">
            <Array as="points" />
          </mxGeometry>
        </mxCell>
        <mxCell id="QRlkg21-nDRliEG5R8-5-3" value="&lt;font style=&quot;font-size: 24px;&quot;&gt;客户端&lt;/font&gt;" style="rounded=1;whiteSpace=wrap;html=1;fillColor=none;fontFamily=阿里巴巴普惠体;" parent="1" vertex="1">
          <mxGeometry x="60" y="250" width="120" height="60" as="geometry" />
        </mxCell>
        <mxCell id="QRlkg21-nDRliEG5R8-5-4" value="" style="rounded=1;whiteSpace=wrap;html=1;fillColor=none;dashed=1;strokeWidth=2;strokeColor=#FF5517;" parent="1" vertex="1">
          <mxGeometry x="260" y="190" width="480" height="170" as="geometry" />
        </mxCell>
        <mxCell id="QRlkg21-nDRliEG5R8-5-6" value="" style="edgeStyle=orthogonalEdgeStyle;rounded=0;orthogonalLoop=1;jettySize=auto;html=1;" parent="1" source="QRlkg21-nDRliEG5R8-5-7" target="QRlkg21-nDRliEG5R8-5-9" edge="1">
          <mxGeometry relative="1" as="geometry" />
        </mxCell>
        <mxCell id="QRlkg21-nDRliEG5R8-5-7" value="&lt;font style=&quot;font-size: 24px;&quot; face=&quot;阿里巴巴普惠体&quot;&gt;解析器&lt;/font&gt;" style="rounded=1;whiteSpace=wrap;html=1;fontColor=default;fillColor=none;" parent="1" vertex="1">
          <mxGeometry x="280" y="250" width="110" height="60" as="geometry" />
        </mxCell>
        <mxCell id="QRlkg21-nDRliEG5R8-5-8" value="" style="edgeStyle=orthogonalEdgeStyle;rounded=0;orthogonalLoop=1;jettySize=auto;html=1;" parent="1" source="QRlkg21-nDRliEG5R8-5-9" target="QRlkg21-nDRliEG5R8-5-10" edge="1">
          <mxGeometry relative="1" as="geometry" />
        </mxCell>
        <mxCell id="QRlkg21-nDRliEG5R8-5-9" value="&lt;font style=&quot;font-size: 24px;&quot; face=&quot;阿里巴巴普惠体&quot;&gt;分析器&lt;/font&gt;" style="rounded=1;whiteSpace=wrap;html=1;fontColor=default;fillColor=none;" parent="1" vertex="1">
          <mxGeometry x="440" y="250" width="110" height="60" as="geometry" />
        </mxCell>
        <mxCell id="QRlkg21-nDRliEG5R8-5-17" value="" style="edgeStyle=orthogonalEdgeStyle;rounded=0;orthogonalLoop=1;jettySize=auto;html=1;" parent="1" source="QRlkg21-nDRliEG5R8-5-10" target="QRlkg21-nDRliEG5R8-5-16" edge="1">
          <mxGeometry relative="1" as="geometry" />
        </mxCell>
        <mxCell id="QRlkg21-nDRliEG5R8-5-10" value="&lt;font style=&quot;font-size: 24px;&quot; face=&quot;阿里巴巴普惠体&quot;&gt;优化器&lt;/font&gt;" style="rounded=1;whiteSpace=wrap;html=1;fontColor=default;fillColor=none;strokeColor=default;align=center;verticalAlign=middle;fontFamily=Helvetica;fontSize=12;" parent="1" vertex="1">
          <mxGeometry x="600" y="250" width="110" height="60" as="geometry" />
        </mxCell>
        <mxCell id="QRlkg21-nDRliEG5R8-5-11" value="&lt;span style=&quot;font-size: 22px;&quot;&gt;SQL 语句执行流程&lt;/span&gt;" style="text;html=1;align=center;verticalAlign=middle;whiteSpace=wrap;rounded=0;" parent="1" vertex="1">
          <mxGeometry x="490" y="410" width="280" height="30" as="geometry" />
        </mxCell>
        <mxCell id="QRlkg21-nDRliEG5R8-5-12" value="逻辑计划" style="text;html=1;align=center;verticalAlign=middle;whiteSpace=wrap;rounded=0;fontFamily=阿里巴巴普惠体;fontSize=14;fontColor=#FF0000;" parent="1" vertex="1">
          <mxGeometry x="650" y="220" width="80" height="30" as="geometry" />
        </mxCell>
        <mxCell id="QRlkg21-nDRliEG5R8-5-15" value="SQL 语句" style="text;html=1;align=left;verticalAlign=middle;whiteSpace=wrap;rounded=0;fontFamily=阿里巴巴普惠体;fontSize=14;" parent="1" vertex="1">
          <mxGeometry x="188" y="250" width="70" height="30" as="geometry" />
        </mxCell>
        <mxCell id="QRlkg21-nDRliEG5R8-5-16" value="&lt;font face=&quot;阿里巴巴普惠体&quot;&gt;&lt;span style=&quot;font-size: 24px;&quot;&gt;执行引擎&lt;/span&gt;&lt;/font&gt;" style="rounded=1;whiteSpace=wrap;html=1;fontColor=default;fillColor=none;strokeColor=default;align=center;verticalAlign=middle;fontFamily=Helvetica;fontSize=12;" parent="1" vertex="1">
          <mxGeometry x="860" y="255" width="110" height="50" as="geometry" />
        </mxCell>
        <mxCell id="QRlkg21-nDRliEG5R8-5-22" value="&lt;font style=&quot;font-size: 28px;&quot; face=&quot;阿里巴巴普惠体&quot;&gt;服务端&lt;/font&gt;" style="text;html=1;align=center;verticalAlign=middle;whiteSpace=wrap;rounded=0;" parent="1" vertex="1">
          <mxGeometry x="580" y="130" width="100" height="30" as="geometry" />
        </mxCell>
        <mxCell id="QRlkg21-nDRliEG5R8-5-23" value="&lt;font style=&quot;font-size: 24px;&quot; face=&quot;阿里巴巴普惠体&quot;&gt;FE&lt;/font&gt;" style="text;html=1;align=center;verticalAlign=middle;whiteSpace=wrap;rounded=0;" parent="1" vertex="1">
          <mxGeometry x="460" y="200" width="100" height="30" as="geometry" />
        </mxCell>
        <mxCell id="QRlkg21-nDRliEG5R8-5-24" value="&lt;font style=&quot;font-size: 24px;&quot; face=&quot;阿里巴巴普惠体&quot;&gt;BE&lt;/font&gt;" style="text;html=1;align=center;verticalAlign=middle;whiteSpace=wrap;rounded=0;" parent="1" vertex="1">
          <mxGeometry x="860" y="200" width="100" height="30" as="geometry" />
        </mxCell>
        <mxCell id="QRlkg21-nDRliEG5R8-5-25" value="&lt;font face=&quot;阿里巴巴普惠体&quot;&gt;&lt;span style=&quot;font-size: 24px;&quot;&gt;存储引擎&lt;/span&gt;&lt;/font&gt;" style="rounded=1;whiteSpace=wrap;html=1;fillColor=#d5e8d4;strokeColor=#82b366;align=center;verticalAlign=middle;fontFamily=Helvetica;fontSize=12;gradientColor=#97d077;" parent="1" vertex="1">
          <mxGeometry x="860" y="300" width="110" height="40" as="geometry" />
        </mxCell>
        <mxCell id="QRlkg21-nDRliEG5R8-5-27" value="物理计划" style="text;html=1;align=left;verticalAlign=middle;whiteSpace=wrap;rounded=0;fontFamily=阿里巴巴普惠体;fontSize=14;fontColor=#FF0000;" parent="1" vertex="1">
          <mxGeometry x="750" y="220" width="100" height="30" as="geometry" />
        </mxCell>
      </root>
    </mxGraphModel>
  </diagram>
</mxfile>
